<?xml version="1.0" standalone="no"?>
<!DOCTYPE svg PUBLIC "-//W3C//DTD SVG 20010904//EN"
 "http://www.w3.org/TR/2001/REC-SVG-20010904/DTD/svg10.dtd">
<svg version="1.0" xmlns="http://www.w3.org/2000/svg"
 width="500.000000pt" height="500.000000pt" viewBox="0 0 500.000000 500.000000"
 preserveAspectRatio="xMidYMid meet">

<g transform="translate(0.000000,500.000000) scale(0.100000,-0.100000)"
fill="#000000" stroke="none">
<path d="M2290 4725 c-8 -2 -55 -9 -105 -15 -442 -58 -892 -285 -1220 -614
-350 -351 -560 -769 -631 -1256 -27 -189 -16 -521 25 -728 64 -322 215 -641
434 -917 72 -91 290 -300 387 -372 293 -217 589 -346 950 -415 135 -25 501
-36 635 -18 175 23 438 90 550 139 11 5 38 17 60 26 63 26 258 126 275 140 8
7 29 20 46 28 114 58 392 303 513 452 221 271 382 603 446 920 72 357 57 749
-42 1075 -108 355 -286 651 -553 921 -318 321 -703 523 -1163 610 -90 17 -158
22 -352 25 -132 1 -247 1 -255 -1z m514 -101 c150 -19 347 -69 456 -116 14 -6
34 -14 45 -18 11 -4 73 -33 137 -64 293 -142 555 -360 757 -631 64 -85 181
-270 181 -286 0 -4 -21 -30 -46 -58 -45 -50 -46 -52 -34 -84 7 -17 16 -36 20
-40 4 -5 28 15 52 42 53 58 52 59 93 -44 93 -236 134 -441 142 -705 8 -278
-21 -493 -102 -735 -155 -466 -514 -899 -952 -1146 l-42 -24 -43 23 c-24 12
-55 30 -70 40 -26 16 -29 15 -69 -4 l-41 -20 60 -39 c34 -22 61 -43 62 -46 0
-7 -149 -69 -225 -94 -68 -22 -177 -52 -240 -65 -33 -6 -69 -14 -80 -16 -42
-9 -262 -34 -302 -34 l-43 0 0 53 c0 64 -6 73 -47 79 -32 4 -33 4 -34 -36 -1
-23 -2 -52 -3 -66 -1 -14 -5 -25 -11 -25 -5 0 -53 4 -105 8 -256 21 -524 98
-768 221 -136 69 -134 66 -68 106 31 19 55 38 53 43 -1 5 -18 17 -37 28 l-35
20 -60 -35 c-32 -20 -62 -36 -66 -36 -3 0 -51 33 -106 74 -201 150 -417 390
-542 604 -35 60 -34 60 64 37 33 -8 64 -15 68 -15 7 0 -30 74 -48 98 -1 1 -39
10 -85 19 l-82 16 -30 66 c-241 531 -227 1209 35 1736 103 206 233 390 397
559 85 88 257 236 274 236 4 0 34 -18 66 -40 l60 -40 40 25 41 26 -34 28 c-19
15 -46 35 -59 44 l-23 16 25 20 c22 18 266 142 315 161 11 5 36 15 55 23 137
59 458 126 608 127 l62 0 0 -70 c0 -67 1 -70 24 -70 50 0 56 8 56 75 0 42 4
65 13 68 19 6 140 -2 271 -19z"/>
<path d="M2295 4449 c-106 -15 -188 -31 -265 -51 -704 -182 -1258 -758 -1405
-1463 -22 -105 -45 -302 -45 -390 0 -88 23 -286 44 -386 90 -423 325 -808 661
-1081 591 -480 1405 -573 2077 -237 309 155 573 389 775 689 65 96 163 303
200 420 98 318 122 610 72 910 -154 926 -971 1607 -1917 1599 -75 -1 -164 -5
-197 -10z m420 -50 c88 -10 195 -30 265 -48 19 -6 51 -14 70 -19 164 -44 415
-170 575 -290 392 -291 648 -701 730 -1167 41 -235 39 -439 -6 -675 -71 -376
-249 -704 -526 -970 -115 -112 -167 -154 -290 -234 -564 -369 -1290 -405
-1889 -95 -366 190 -649 481 -828 851 -147 303 -213 667 -176 969 32 259 88
449 198 663 99 194 197 326 357 483 262 256 536 410 884 494 188 46 443 61
636 38z"/>
<path d="M2260 4318 c0 -10 -7 -18 -17 -18 -14 0 -15 -2 -1 -17 9 -10 13 -25
10 -33 -4 -13 -3 -13 11 -2 9 8 22 10 28 6 8 -5 10 -2 6 8 -3 9 0 21 6 27 8 8
7 11 -6 11 -9 0 -21 8 -26 18 -10 16 -10 16 -11 0z"/>
<path d="M2721 4317 c-7 -9 -17 -15 -20 -12 -4 2 -8 -8 -8 -23 0 -23 5 -27 28
-28 17 -1 26 3 23 11 -3 6 5 17 18 23 23 11 23 11 1 11 -12 1 -23 8 -25 18 -3
15 -4 15 -17 0z"/>
<path d="M2400 4260 c-47 -15 -132 -42 -190 -60 -146 -44 -141 -41 -89 -58 44
-14 49 -14 91 7 24 11 55 21 69 20 16 -1 10 -4 -18 -10 -23 -6 -47 -16 -53
-24 -10 -12 -4 -17 34 -27 l47 -12 -7 -57 -6 -56 59 -5 c32 -3 84 -14 115 -23
52 -17 59 -17 97 -2 23 9 73 20 112 23 l71 7 -7 57 -7 56 109 30 108 31 -50
16 c-27 8 -97 30 -155 47 -58 18 -132 41 -164 51 -72 23 -63 24 -166 -11z
m120 -69 c0 -11 -26 -22 -34 -14 -12 12 -5 23 14 23 11 0 20 -4 20 -9z m-110
-12 c-25 -4 -56 -7 -70 -7 -23 0 -22 1 5 8 17 4 48 8 70 8 l40 -1 -45 -8z
m129 -85 c8 -7 -64 -3 -104 6 -31 7 -24 7 30 3 39 -3 72 -7 74 -9z m59 9 c-10
-2 -26 -2 -35 0 -10 3 -2 5 17 5 19 0 27 -2 18 -5z m-274 -50 c-3 -21 -11 -42
-17 -48 -6 -7 -8 1 -3 24 3 18 6 40 6 47 0 8 5 14 10 14 7 0 8 -14 4 -37z"/>
<path d="M2951 4283 c-1 -7 -9 -13 -18 -13 -13 0 -18 -8 -18 -29 0 -19 4 -27
13 -24 7 3 20 -1 29 -8 14 -12 16 -12 8 0 -5 9 -2 19 10 28 11 7 13 13 7 13
-7 0 -17 10 -22 23 -5 12 -9 16 -9 10z"/>
<path d="M2040 4264 c0 -8 -7 -14 -15 -14 -20 0 -19 -16 1 -24 10 -4 14 -12 9
-24 -5 -14 -4 -15 6 -4 7 6 20 12 29 12 24 0 19 45 -7 58 -18 8 -23 7 -23 -4z"/>
<path d="M3166 4212 c-4 -8 -17 -11 -28 -9 -16 4 -17 3 -7 -9 9 -10 9 -17 0
-28 -19 -22 30 -26 53 -4 11 10 15 18 8 18 -6 0 -12 10 -14 23 -2 16 -5 19
-12 9z"/>
<path d="M1820 4186 c0 -5 -8 -15 -17 -22 -17 -12 -16 -13 5 -14 14 0 22 -6
22 -17 0 -15 2 -15 9 -4 5 8 16 11 25 8 17 -7 22 8 6 18 -6 4 -7 13 -1 23 8
14 4 17 -20 17 -16 0 -29 -4 -29 -9z"/>
<path d="M3375 4110 c-4 -6 -15 -8 -26 -5 -14 5 -17 3 -13 -9 4 -9 0 -24 -7
-33 -12 -14 -12 -16 0 -8 9 5 19 2 28 -10 12 -17 13 -17 13 -2 0 11 8 17 22
17 19 0 20 2 6 18 -9 9 -13 23 -11 30 6 15 -3 16 -12 2z"/>
<path d="M1610 4083 c0 -12 -6 -24 -12 -26 -10 -4 -9 -6 1 -6 8 -1 20 -9 27
-18 8 -11 13 -13 14 -5 0 6 10 12 23 12 16 0 19 3 8 9 -8 5 -12 18 -8 30 4 17
2 19 -12 11 -12 -6 -22 -5 -29 2 -9 9 -12 7 -12 -9z"/>
<path d="M1870 3990 c-30 -10 -113 -36 -185 -59 l-130 -42 -85 -106 c-47 -58
-90 -111 -95 -117 -6 -6 -28 -32 -49 -58 l-38 -48 47 18 c28 10 51 25 55 37 8
21 51 63 129 125 25 19 58 47 74 63 35 31 37 32 37 12 0 -9 -8 -18 -17 -22
-37 -13 -213 -158 -213 -175 0 -10 21 -8 75 7 17 5 24 -4 44 -50 13 -31 27
-54 30 -52 72 38 143 68 175 73 34 5 45 13 66 46 14 22 49 62 78 89 l53 49
-48 51 c-40 43 -45 53 -33 63 41 33 112 116 100 115 -8 0 -40 -9 -70 -19z
m-70 -143 c0 -2 -12 -14 -27 -28 l-28 -24 24 28 c23 25 31 32 31 24z m-160
-137 c-8 -5 -19 -10 -25 -10 -5 0 -3 5 5 10 8 5 20 10 25 10 6 0 3 -5 -5 -10z
m-45 -20 c-3 -5 -12 -10 -18 -10 -7 0 -6 4 3 10 19 12 23 12 15 0z m-80 -40
c-3 -5 -2 -10 3 -10 7 0 24 -29 50 -82 2 -5 0 -8 -5 -8 -5 0 -19 20 -31 45
-12 25 -27 45 -34 45 -9 0 -8 3 2 10 19 12 23 12 15 0z"/>
<path d="M3105 3958 c28 -28 56 -58 63 -66 11 -12 5 -22 -33 -63 l-45 -48 52
-53 c59 -59 81 -86 90 -110 4 -9 24 -17 49 -21 24 -3 74 -21 110 -40 l66 -34
28 56 c26 53 26 56 8 69 -20 16 -17 15 50 -17 26 -12 53 -21 58 -19 11 4 -89
108 -103 108 -5 0 -8 5 -8 11 0 15 119 -92 126 -114 5 -15 79 -57 101 -57 4 0
-112 146 -127 160 -3 3 -38 43 -76 90 l-71 85 -179 58 c-98 31 -186 57 -194
57 -8 0 7 -22 35 -52z m55 -153 c-18 -19 -36 -32 -39 -30 -6 7 50 65 63 65 5
0 -5 -16 -24 -35z m182 -85 c-1 -2 -31 25 -65 60 l-62 64 65 -59 c36 -33 64
-62 62 -65z m56 92 c2 -7 -3 -12 -12 -12 -9 0 -16 7 -16 16 0 17 22 14 28 -4z
m79 -64 c3 -7 -8 -2 -25 10 -17 13 -35 28 -39 34 -3 7 8 2 25 -10 17 -13 35
-28 39 -34z"/>
<path d="M3530 3973 c0 -12 -6 -24 -12 -26 -7 -3 -3 -6 10 -6 16 -1 22 -7 23
-23 l0 -23 9 23 c5 12 17 22 27 23 11 0 13 3 6 6 -7 2 -13 14 -13 25 0 16 -3
18 -13 9 -10 -8 -17 -7 -25 1 -9 9 -12 7 -12 -9z"/>
<path d="M1420 3948 c0 -9 -6 -19 -12 -21 -8 -3 -6 -6 5 -6 10 -1 22 -11 27
-23 l9 -23 0 23 c1 16 7 22 24 23 12 0 16 3 10 6 -7 2 -13 12 -13 21 0 11 -8
17 -25 17 -17 0 -25 -6 -25 -17z"/>
<path d="M2305 3950 c11 -4 43 -14 70 -22 l50 -14 -34 -18 c-19 -10 -75 -27
-125 -37 -169 -34 -331 -99 -399 -159 -21 -18 -49 -51 -62 -74 -22 -38 -30
-43 -84 -54 -56 -12 -65 -18 -127 -85 -65 -71 -174 -228 -206 -297 -39 -85
-58 -143 -52 -164 4 -16 -2 -32 -19 -52 -31 -38 -37 -61 -43 -172 -5 -96 17
-289 37 -321 7 -12 8 -9 4 15 -8 43 3 84 21 77 10 -3 16 5 20 26 4 17 11 31
16 31 6 0 23 11 40 25 16 14 34 25 40 25 18 0 -2 -93 -25 -118 -17 -19 -19
-25 -8 -32 8 -4 11 -15 8 -24 -7 -17 -73 -53 -82 -44 -3 3 2 22 10 43 24 55
12 53 -14 -4 -28 -58 -23 -79 45 -210 45 -85 53 -115 16 -64 -27 39 -56 100
-72 153 -7 25 -17 50 -20 55 -10 15 -29 92 -40 164 -18 118 -115 176 -200 119
-82 -56 -65 -179 31 -218 l29 -12 -29 -27 c-16 -15 -35 -45 -41 -68 -11 -35
-10 -46 8 -86 21 -47 77 -87 122 -87 20 0 20 -2 -7 -37 -23 -30 -28 -46 -28
-94 0 -65 18 -98 76 -137 29 -21 43 -23 96 -19 l61 5 -25 -47 c-50 -93 -10
-210 87 -258 25 -12 55 -22 67 -23 12 0 39 -17 60 -38 116 -115 328 -247 473
-296 414 -139 839 -86 1185 146 66 45 156 118 197 160 14 16 37 28 51 28 31 0
84 22 119 50 67 52 82 162 34 244 -25 42 -25 46 -8 37 27 -14 107 -14 135 0
55 29 97 91 97 146 0 34 -24 87 -51 112 l-23 21 28 0 c38 0 99 36 119 70 33
56 14 155 -35 181 -21 11 -21 12 14 30 123 63 92 239 -42 239 -73 0 -118 -47
-131 -136 -21 -152 -84 -319 -149 -395 -25 -29 -28 -31 -23 -10 3 12 16 34 28
47 23 25 85 162 85 188 0 8 4 17 9 20 9 6 14 27 37 156 24 137 12 334 -21 347
-19 7 -42 66 -28 70 16 6 1 57 -45 153 -53 111 -130 222 -215 309 -63 65 -74
72 -129 83 -57 12 -62 16 -93 63 -46 71 -68 88 -175 138 -95 45 -211 80 -305
93 -55 7 -125 32 -125 44 0 4 21 13 48 20 95 24 101 28 47 29 -27 1 -79 -8
-116 -20 l-66 -21 -70 21 c-68 20 -172 30 -128 11z m-118 -297 c167 -167 277
-383 311 -613 l9 -65 2 50 c1 55 29 169 63 255 56 142 149 281 261 388 69 66
87 74 87 42 0 -23 64 -90 85 -90 28 0 15 -17 -42 -61 -180 -135 -364 -387
-437 -599 -21 -61 -20 -80 4 -80 11 0 20 5 20 10 0 6 4 10 10 10 5 0 7 -7 4
-15 -8 -20 3 -18 56 10 31 17 39 24 25 25 -15 1 -12 5 15 20 19 11 31 19 25
19 -5 0 -21 -6 -35 -14 -30 -17 -44 -19 -35 -5 10 16 94 56 171 82 61 20 88
23 234 22 91 0 198 -6 238 -13 70 -12 73 -14 104 -59 18 -26 47 -66 65 -90 32
-42 43 -69 24 -57 -5 3 -43 10 -83 15 -40 5 -122 17 -183 25 -146 20 -391 19
-470 -1 -95 -25 -112 -27 -95 -15 13 10 13 11 0 12 -8 0 3 9 25 19 49 23 32
26 -20 4 -21 -9 -34 -19 -29 -22 12 -9 16 -32 6 -32 -4 0 -18 8 -32 17 -31 22
-107 22 -141 0 -22 -14 -31 -16 -55 -6 -105 41 -347 52 -550 24 -173 -23 -248
-35 -266 -41 -10 -3 -18 -3 -18 1 0 3 27 43 61 88 33 44 63 86 67 93 18 30
316 54 443 35 110 -15 181 -40 262 -89 40 -24 46 -43 7 -22 -18 10 -21 9 -15
-1 6 -9 2 -10 -16 -5 -61 16 -70 15 -24 -4 53 -21 80 -26 55 -10 -8 5 -10 10
-5 10 6 0 17 -5 25 -10 11 -7 11 -10 2 -10 -8 0 -10 -5 -6 -12 5 -8 2 -9 -10
-5 -10 4 -30 9 -44 12 -15 3 -7 -2 17 -11 31 -12 39 -19 30 -25 -25 -15 1 -9
34 8 18 9 43 16 56 14 19 -2 22 1 17 14 -3 9 -9 27 -12 40 -4 17 -12 22 -25
20 -13 -3 -40 14 -78 48 -134 120 -361 204 -628 232 l-61 7 66 64 c37 35 72
64 79 64 6 0 51 -14 100 -31 104 -36 217 -96 293 -154 63 -49 181 -169 199
-203 7 -13 15 -21 18 -19 16 17 -136 191 -236 271 -88 69 -310 192 -431 239
l-45 18 75 37 75 37 40 -19 c84 -39 213 -134 296 -216 94 -93 148 -168 209
-287 51 -101 52 -78 1 32 -82 175 -244 377 -390 485 -61 46 -72 60 -46 60 22
0 82 57 89 85 4 14 11 25 16 25 5 0 45 -35 87 -77z m1073 -163 c0 -3 -21 -14
-48 -24 -75 -30 -255 -121 -314 -159 -106 -68 -210 -160 -275 -242 -37 -47
-68 -83 -70 -81 -8 8 66 142 115 211 57 79 102 128 186 199 70 61 81 69 179
127 l79 47 74 -36 c41 -20 74 -39 74 -42z m-15 -184 l68 -64 -49 -6 c-311 -39
-505 -110 -653 -242 -55 -49 -84 -64 -74 -37 4 10 8 11 13 3 4 -7 18 6 35 32
63 98 209 220 346 289 70 36 205 87 230 88 9 1 47 -28 84 -63z m-1330 -131
c205 -31 319 -79 472 -198 34 -26 65 -48 69 -47 4 0 9 -6 10 -15 1 -8 -2 -15
-7 -15 -18 0 -24 -3 -35 -19 -10 -13 -12 -11 -10 9 0 14 5 28 10 31 11 9 -59
53 -140 90 -107 49 -206 64 -422 64 -105 0 -192 1 -192 3 0 2 17 28 38 57 43
63 47 64 207 40z m1376 -32 c19 -26 38 -53 42 -60 7 -12 -13 -13 -120 -7 -230
12 -420 -20 -550 -92 -72 -40 -81 -50 -53 -59 11 -4 18 -11 15 -16 -9 -14 -27
-11 -20 4 4 6 -2 1 -14 -13 -19 -24 -25 -10 -8 18 9 13 -3 16 -19 5 -5 -5 8
10 31 33 129 129 378 223 621 232 38 2 43 -1 75 -45z m-1870 -211 c-7 -16 -23
-34 -36 -40 -15 -7 -22 -17 -19 -25 7 -19 -31 -29 -62 -17 -28 11 -29 12 -8
51 8 17 21 28 28 26 7 -3 18 3 24 13 9 15 66 31 81 23 2 -1 -2 -15 -8 -31z
m2240 5 c9 -11 21 -17 27 -13 6 4 16 -2 21 -13 13 -23 14 -61 4 -62 -5 0 -16
-2 -27 -4 -27 -5 -46 5 -46 24 0 10 -10 22 -22 28 -13 6 -28 25 -35 42 l-11
32 36 -7 c20 -3 44 -15 53 -27z m-2235 -151 c-4 -21 -17 -43 -34 -55 -20 -15
-24 -23 -14 -29 10 -7 9 -12 -5 -24 -23 -21 -73 -34 -73 -19 0 6 5 11 10 11 6
0 10 7 10 17 0 14 -2 14 -20 -2 -20 -18 -20 -17 -20 8 0 14 5 37 12 51 8 20
14 23 24 15 10 -8 16 -5 24 13 10 21 79 62 89 52 2 -1 0 -19 -3 -38z m986 19
c41 -35 133 -36 175 -2 l28 23 325 -7 c179 -4 380 -7 448 -8 116 -1 122 -2
122 -21 0 -21 -3 -21 -367 -16 -203 2 -305 1 -228 -3 110 -5 147 -10 168 -24
34 -22 35 -59 3 -84 -13 -11 -35 -42 -49 -69 -14 -28 -45 -75 -69 -105 -59
-73 -100 -135 -125 -189 -48 -105 -74 -283 -66 -446 6 -117 -2 -132 -47 -84
l-29 31 -17 -33 c-38 -76 -66 -86 -91 -33 -9 19 -19 35 -22 35 -3 0 -17 -21
-31 -47 -14 -26 -30 -49 -37 -51 -7 -2 -24 21 -39 50 -24 47 -28 51 -38 34
-41 -68 -61 -69 -97 -1 l-24 44 -27 -30 c-47 -50 -53 -37 -50 97 5 179 -24
346 -80 458 -17 33 -61 100 -99 150 -38 50 -77 108 -86 129 -9 20 -27 44 -40
52 -33 22 -31 69 4 92 21 14 57 19 157 24 72 4 -32 5 -231 3 -322 -4 -363 -2
-363 11 0 9 6 18 13 20 6 3 201 9 432 13 231 5 426 10 434 10 7 1 26 -9 43
-23z m1220 3 c15 -7 32 -23 39 -34 7 -14 18 -20 30 -17 17 5 19 0 19 -38 -1
-41 -2 -43 -15 -25 -13 17 -15 17 -15 4 0 -9 5 -20 10 -23 22 -14 8 -23 -21
-15 -42 12 -64 31 -48 41 9 5 4 14 -15 31 -17 14 -29 37 -33 62 -7 42 -8 42
49 14z m-22 -161 c16 -12 34 -35 41 -50 7 -17 17 -26 25 -23 19 7 29 -38 17
-77 l-10 -32 -16 39 c-10 22 -20 36 -24 33 -3 -4 -1 -12 4 -19 15 -19 23 -58
12 -58 -20 0 -69 31 -79 50 -9 16 -8 20 5 20 21 0 19 7 -10 38 -19 20 -25 38
-25 70 0 49 8 51 60 9z m186 -126 c20 -16 21 -20 8 -25 -31 -12 -44 -6 -44 19
0 30 5 31 36 6z m-2546 -23 c0 -10 -44 -10 -53 -1 -4 3 3 11 16 18 21 11 36 4
37 -17z m283 -34 c4 -40 2 -57 -14 -80 -23 -35 -24 -44 -4 -44 19 0 19 -15 -1
-46 -15 -21 -61 -54 -78 -54 -8 0 6 34 18 42 7 5 7 8 -2 8 -7 0 -11 9 -9 23 2
12 2 16 0 10 -3 -7 -8 -13 -12 -13 -4 0 -7 -8 -7 -17 1 -10 -3 -19 -9 -21 -12
-4 -23 30 -24 76 -1 29 2 33 19 27 17 -5 20 -2 20 27 0 24 11 46 41 81 23 27
45 45 49 40 4 -4 10 -31 13 -59z m2010 14 c27 -31 37 -51 37 -76 0 -29 3 -32
20 -27 17 5 20 2 20 -21 0 -30 -20 -94 -30 -94 -3 0 -12 24 -21 53 l-16 52 2
-43 c2 -24 5 -46 9 -49 3 -4 6 -12 6 -20 0 -21 -54 10 -79 46 -26 36 -26 41
-1 41 25 0 25 8 0 40 -20 26 -24 56 -14 109 9 42 24 39 67 -11z m-1887 -174
c15 -54 15 -63 -11 -128 -7 -15 -5 -17 13 -12 11 4 23 3 25 -2 9 -14 -29 -88
-54 -106 -47 -32 -54 -8 -11 37 l27 30 -27 -18 -28 -17 -1 33 -1 34 -8 -30
c-4 -16 -5 -43 -2 -60 5 -28 4 -29 -12 -16 -22 19 -41 57 -50 100 -5 30 -4 33
14 28 18 -5 20 0 20 38 0 42 23 96 58 137 20 24 29 15 48 -48z m1770 10 c29
-44 35 -63 33 -97 -3 -36 -1 -42 15 -39 17 3 18 -2 13 -37 -3 -22 -16 -55 -28
-73 l-24 -33 -7 73 c-7 85 -18 107 -18 38 0 -44 -1 -47 -22 -40 -21 6 -20 4 5
-15 30 -25 37 -54 11 -49 -23 4 -71 66 -80 102 -6 25 -5 28 15 21 25 -8 26 -1
6 56 -10 28 -12 45 -5 47 5 2 10 11 10 20 0 23 23 82 32 82 5 0 24 -25 44 -56z
m-2131 -64 c-3 -5 -11 -10 -16 -10 -6 0 -7 5 -4 10 3 6 11 10 16 10 6 0 7 -4
4 -10z m2440 0 c3 -5 -1 -10 -9 -10 -9 0 -16 5 -16 10 0 6 4 10 9 10 6 0 13
-4 16 -10z m-456 -160 c9 -33 9 -53 2 -73 -14 -37 -14 -37 8 -37 18 0 19 -4
10 -28 -5 -16 -25 -44 -45 -63 l-34 -33 4 44 c2 25 2 37 -1 27 -4 -18 -5 -18
-26 0 -21 18 -21 18 -4 -7 9 -13 17 -35 17 -48 0 -23 0 -23 -24 5 -13 15 -26
38 -30 51 -3 12 -9 31 -12 42 -4 16 -1 20 19 20 23 0 24 3 20 48 -4 40 0 54
27 96 31 49 31 49 44 25 7 -13 18 -44 25 -69z m-1476 34 c24 -40 27 -52 21
-97 -5 -43 -4 -50 7 -39 7 6 17 12 22 12 17 0 0 -78 -23 -111 -20 -28 -24 -29
-33 -14 -5 10 -5 20 -1 24 5 3 16 15 24 26 14 20 14 20 -7 2 -20 -18 -21 -18
-32 20 -10 36 -10 34 -5 -19 6 -67 -4 -73 -39 -25 -34 44 -43 77 -23 77 19 0
20 18 5 57 -7 19 -7 29 0 31 6 2 11 12 11 21 0 21 28 81 38 81 4 0 20 -21 35
-46z m1743 15 c-17 -39 -94 -137 -119 -151 -35 -18 -28 0 18 47 25 26 59 67
77 91 17 24 33 44 34 44 2 0 -3 -14 -10 -31z m-1974 -112 c26 -26 48 -50 48
-53 0 -2 -12 2 -28 10 -41 21 -133 135 -132 163 1 4 15 -10 33 -32 17 -22 53
-62 79 -88z m386 3 c18 -16 36 -30 41 -30 11 0 17 -17 27 -72 7 -42 7 -42 33
-28 15 8 20 3 29 -28 18 -59 -14 -150 -39 -111 -5 8 -7 20 -4 27 14 35 15 44
2 23 l-14 -24 -13 22 c-6 13 -14 21 -16 18 -3 -3 4 -21 16 -42 24 -43 22 -49
-12 -36 -58 22 -113 91 -73 91 21 0 19 10 -7 37 -14 15 -23 39 -25 66 -3 51 6
117 16 117 5 0 22 -13 39 -30z m1144 -37 c4 -58 1 -74 -19 -105 -27 -44 -28
-48 -8 -48 20 0 19 -12 -5 -42 -18 -24 -76 -58 -98 -58 -6 0 3 25 20 56 17 30
28 58 25 61 -3 3 -13 -11 -21 -31 -8 -20 -19 -36 -24 -36 -6 0 -13 -12 -16
-26 l-7 -27 -17 24 c-10 15 -16 42 -16 75 1 65 10 81 33 60 23 -20 31 -11 31
33 0 29 9 43 50 83 27 26 54 48 59 48 5 0 11 -30 13 -67z m-1183 -221 c108
-50 151 -64 151 -49 0 9 3 8 9 -1 4 -7 48 -27 97 -43 86 -30 139 -63 128 -81
-3 -4 -25 4 -50 18 -24 14 -83 39 -131 54 -196 64 -403 173 -432 229 -7 12 20
-1 72 -36 45 -31 115 -72 156 -91z m1396 124 c-25 -37 -83 -74 -225 -142 -124
-60 -120 -58 -229 -94 -52 -17 -107 -40 -122 -50 -24 -18 -39 -17 -39 1 0 13
64 46 135 70 39 12 76 27 83 32 6 5 12 7 12 4 0 -15 182 60 235 97 16 12 46
29 65 40 19 10 49 29 65 42 38 30 39 30 20 0z m-1379 -175 c50 -23 64 -41 32
-42 -26 -1 -100 -27 -80 -28 7 -1 33 4 58 10 25 6 47 9 50 6 11 -11 -28 -69
-59 -87 -41 -25 -57 -25 -57 0 0 11 -1 20 -2 20 -2 0 -30 -14 -62 -30 -60 -31
-86 -37 -86 -21 0 5 -17 15 -37 21 -56 18 -58 24 -16 59 21 17 45 38 54 46 10
9 36 15 68 15 48 0 51 1 41 19 -5 11 -10 22 -10 25 0 13 68 4 106 -13z m1230
-6 c-6 -24 -5 -25 42 -25 37 0 55 -6 74 -23 13 -12 38 -33 54 -45 28 -21 28
-22 10 -37 -11 -8 -28 -15 -38 -15 -10 0 -21 -7 -24 -15 -9 -22 -36 -18 -98
14 l-56 30 0 -24 c0 -32 -31 -23 -81 25 -50 47 -53 74 -6 65 79 -16 83 -17 66
-6 -9 6 -31 13 -50 16 -43 8 -47 12 -23 30 24 18 70 33 108 34 25 1 28 -2 22
-24z"/>
<path d="M2078 2963 c6 -2 18 -2 25 0 6 3 1 5 -13 5 -14 0 -19 -2 -12 -5z"/>
<path d="M2888 2963 c6 -2 18 -2 25 0 6 3 1 5 -13 5 -14 0 -19 -2 -12 -5z"/>
<path d="M2215 2950 c11 -5 29 -8 40 -8 16 0 15 2 -5 8 -34 11 -60 11 -35 0z"/>
<path d="M2320 2950 c8 -5 20 -10 25 -10 6 0 3 5 -5 10 -8 5 -19 10 -25 10 -5
0 -3 -5 5 -10z"/>
<path d="M2778 2953 c7 -3 16 -2 19 1 4 3 -2 6 -13 5 -11 0 -14 -3 -6 -6z"/>
<path d="M2738 2943 c7 -3 16 -2 19 1 4 3 -2 6 -13 5 -11 0 -14 -3 -6 -6z"/>
<path d="M2680 2930 c-18 -12 -2 -12 25 0 13 6 15 9 5 9 -8 0 -22 -4 -30 -9z"/>
<path d="M2118 2923 c18 -2 45 -2 60 0 15 2 0 4 -33 4 -33 0 -45 -2 -27 -4z"/>
<path d="M2823 2923 c15 -2 37 -2 50 0 12 2 0 4 -28 4 -27 0 -38 -2 -22 -4z"/>
<path d="M2231 2916 c2 -2 22 -6 44 -9 28 -5 34 -4 20 3 -19 8 -73 14 -64 6z"/>
<path d="M2705 2910 c-25 -11 1 -11 35 0 20 6 21 8 5 8 -11 0 -29 -3 -40 -8z"/>
<path d="M2330 2870 c8 -5 20 -10 25 -10 6 0 3 5 -5 10 -8 5 -19 10 -25 10 -5
0 -3 -5 5 -10z"/>
<path d="M2650 2870 c-8 -5 -10 -10 -5 -10 6 0 17 5 25 10 8 5 11 10 5 10 -5
0 -17 -5 -25 -10z"/>
<path d="M2441 2921 c-8 -5 -9 -11 -3 -15 5 -3 12 1 16 9 6 17 6 18 -13 6z"/>
<path d="M1305 2880 c-10 -11 -14 -20 -8 -20 5 0 18 9 28 20 10 11 14 20 8 20
-5 0 -18 -9 -28 -20z"/>
<path d="M3672 2894 c10 -10 20 -16 22 -13 3 3 -5 11 -17 18 -21 13 -21 12 -5
-5z"/>
<path d="M2313 2783 c40 -3 57 -8 54 -16 -2 -8 -57 -16 -163 -24 -148 -11
-228 -23 -241 -37 -11 -11 46 -24 182 -41 129 -17 562 -20 682 -5 120 15 213
33 219 41 8 13 -98 31 -256 43 -155 11 -197 25 -110 37 l45 6 -43 1 c-32 2
-52 -4 -76 -23 -28 -21 -44 -25 -103 -25 -58 0 -76 4 -107 25 -29 20 -48 25
-89 23 l-52 -2 58 -3z"/>
<path d="M1980 2623 c0 -13 71 -120 105 -158 l26 -30 -5 55 c-3 30 -6 69 -6
86 0 29 -4 32 -37 39 -21 3 -48 9 -60 12 -13 3 -23 1 -23 -4z"/>
<path d="M2948 2618 l-48 -10 0 -67 c0 -36 -3 -77 -6 -91 -8 -30 86 84 117
143 22 43 22 43 -63 25z"/>
<path d="M2152 2579 c31 -56 132 -179 140 -171 8 8 41 173 35 178 -1 1 -44 5
-95 9 l-94 7 14 -23z"/>
<path d="M2726 2593 l-48 -4 7 -57 c3 -31 11 -75 17 -97 l10 -40 35 40 c36 41
113 150 113 159 0 6 -46 5 -134 -1z"/>
<path d="M2370 2578 c0 -15 70 -133 103 -172 14 -17 29 -26 35 -22 19 11 101
130 117 170 l15 36 -135 0 c-98 0 -135 -3 -135 -12z"/>
<path d="M2131 2515 c-1 -92 13 -134 56 -177 21 -20 44 -37 51 -38 7 0 20 16
28 36 15 36 15 37 -14 68 -39 43 -86 105 -105 141 l-16 30 0 -60z"/>
<path d="M2841 2522 c-36 -56 -37 -58 -88 -113 l-32 -34 20 -44 20 -45 49 49
c44 44 50 54 60 116 6 37 10 80 8 96 -3 27 -4 26 -37 -25z"/>
<path d="M2640 2533 c-23 -44 -86 -137 -104 -152 -21 -18 -21 -20 19 -66 l35
-40 51 51 50 50 -19 92 c-18 91 -19 92 -32 65z"/>
<path d="M2347 2543 c-4 -3 -7 -18 -7 -32 0 -14 -7 -51 -15 -81 l-15 -55 50
-50 49 -49 27 24 c48 46 49 57 8 106 -20 25 -49 68 -64 95 -14 27 -30 46 -33
42z"/>
<path d="M2281 2313 l-20 -40 40 -39 40 -39 25 30 c13 17 24 32 24 35 0 3 -20
25 -44 49 l-44 44 -21 -40z"/>
<path d="M2651 2305 l-43 -44 23 -30 c13 -16 28 -30 32 -30 4 -1 24 15 43 34
l35 36 -17 39 c-10 22 -20 40 -23 39 -3 0 -26 -20 -50 -44z"/>
<path d="M2460 2295 l-34 -35 38 -39 39 -39 21 21 c52 54 52 55 16 92 -19 19
-37 35 -40 35 -3 0 -21 -16 -40 -35z"/>
<path d="M2194 2275 c12 -38 21 -44 30 -18 4 10 -1 23 -13 35 -28 25 -30 23
-17 -17z"/>
<path d="M2795 2290 c-11 -12 -15 -26 -10 -37 6 -15 10 -13 22 16 17 40 13 48
-12 21z"/>
<path d="M2232 2230 c-6 -11 -12 -27 -12 -35 0 -16 50 -85 61 -85 3 0 14 16
25 35 l18 35 -34 35 c-40 41 -41 41 -58 15z"/>
<path d="M2717 2215 l-37 -35 17 -35 c9 -19 20 -35 24 -35 14 0 59 66 59 86 0
10 -6 27 -14 36 -12 16 -16 14 -49 -17z"/>
<path d="M2382 2210 c-26 -33 -22 -48 23 -90 l26 -24 24 29 c13 17 24 35 25
41 0 10 -61 75 -70 73 -3 0 -15 -13 -28 -29z"/>
<path d="M2569 2218 c-51 -49 -51 -52 -21 -90 l28 -36 33 39 c35 42 35 63 2
93 -18 16 -20 16 -42 -6z"/>
<path d="M2321 2125 c-12 -20 -21 -38 -21 -41 0 -3 14 -26 31 -51 l32 -46 23
39 c13 22 24 41 24 44 0 3 -15 24 -34 48 l-34 42 -21 -35z"/>
<path d="M2472 2112 l-30 -38 29 -48 30 -48 30 46 c16 26 29 48 29 50 0 2 -13
20 -29 40 l-29 36 -30 -38z"/>
<path d="M2634 2128 c-47 -54 -47 -54 -18 -97 15 -23 28 -41 29 -41 2 0 15 21
30 46 27 45 27 48 11 80 -19 40 -26 42 -52 12z"/>
<path d="M2240 2074 c1 -36 2 -38 15 -20 19 25 19 31 0 46 -13 11 -15 7 -15
-26z"/>
<path d="M2743 2094 c-3 -8 -1 -25 5 -37 10 -20 11 -18 11 16 1 39 -5 48 -16
21z"/>
<path d="M2266 2019 c-17 -41 -16 -43 10 -97 l27 -55 24 46 23 46 -31 51 c-17
27 -32 50 -34 50 -1 0 -10 -19 -19 -41z"/>
<path d="M2687 2016 c-15 -24 -27 -47 -27 -52 0 -14 34 -94 41 -94 3 0 15 23
28 52 23 52 22 84 -3 119 -11 16 -14 13 -39 -25z"/>
<path d="M2399 2005 l-24 -44 28 -57 c15 -31 30 -54 34 -51 3 3 16 28 28 56
l23 50 -29 45 c-16 25 -30 46 -32 46 -2 0 -15 -20 -28 -45z"/>
<path d="M2544 2005 l-26 -45 23 -55 c12 -30 25 -55 28 -55 3 0 18 26 33 57
l27 57 -25 43 c-14 24 -27 43 -29 43 -2 0 -16 -20 -31 -45z"/>
<path d="M2339 1886 c-11 -27 -18 -57 -15 -69 8 -30 44 -87 54 -87 5 0 17 17
26 38 16 36 16 41 0 83 -10 24 -23 53 -30 63 -13 18 -15 16 -35 -28z"/>
<path d="M2476 1877 c-14 -32 -26 -61 -26 -65 0 -13 45 -112 51 -112 6 0 20
27 44 85 11 27 10 36 -16 90 l-28 60 -25 -58z"/>
<path d="M2613 1879 c-13 -28 -23 -59 -23 -70 0 -25 27 -79 39 -79 5 0 21 23
34 50 l26 51 -21 49 c-11 28 -23 50 -27 50 -3 0 -16 -23 -28 -51z"/>
<path d="M2250 1871 c0 -21 -3 -53 -6 -70 -9 -41 8 -40 29 4 15 31 15 38 2 70
-9 19 -17 35 -20 35 -3 0 -5 -17 -5 -39z"/>
<path d="M2729 1870 c-16 -37 -16 -40 5 -72 l21 -33 3 57 c4 79 -8 98 -29 48z"/>
<path d="M1457 2381 c-4 -17 -3 -21 5 -13 5 5 8 16 6 23 -3 8 -7 3 -11 -10z"/>
<path d="M1969 1898 c5 -13 12 -32 15 -42 4 -10 9 -16 12 -14 6 6 -22 78 -30
78 -3 0 -2 -10 3 -22z"/>
<path d="M3025 1900 c-4 -12 -5 -24 -2 -27 3 -2 8 5 12 17 4 12 5 24 2 27 -3
2 -8 -5 -12 -17z"/>
<path d="M1830 1640 c-18 -12 -2 -12 25 0 13 6 15 9 5 9 -8 0 -22 -4 -30 -9z"/>
<path d="M1935 1639 c-4 -6 -5 -12 -2 -15 2 -3 7 2 10 11 7 17 1 20 -8 4z"/>
<path d="M3155 1640 c27 -12 43 -12 25 0 -8 5 -22 9 -30 9 -10 0 -8 -3 5 -9z"/>
<path d="M3710 3833 c0 -10 -5 -24 -12 -31 -9 -9 -8 -12 5 -12 9 0 17 -8 17
-17 1 -16 2 -16 13 -2 7 9 18 14 26 11 10 -3 12 0 8 12 -4 10 -7 24 -7 32 0 9
-5 12 -10 9 -6 -4 -17 -1 -25 5 -12 10 -15 9 -15 -7z"/>
<path d="M1284 3819 c-3 -6 -16 -8 -28 -5 -18 4 -21 1 -21 -24 0 -17 5 -30 12
-30 7 0 17 -8 22 -17 9 -16 10 -16 11 5 0 16 6 22 22 22 21 0 21 1 3 14 -11 8
-16 19 -12 30 7 18 2 22 -9 5z"/>
<path d="M3871 3663 c-1 -15 -7 -23 -18 -24 -14 0 -13 -3 5 -11 15 -8 21 -17
17 -27 -5 -13 -4 -14 6 -3 7 6 22 12 33 12 15 0 17 3 9 11 -6 6 -9 18 -6 25 3
9 -2 14 -15 14 -11 0 -23 6 -25 13 -3 6 -6 2 -6 -10z"/>
<path d="M1127 3653 c-5 -7 -18 -13 -30 -13 -16 0 -18 -3 -9 -12 8 -8 9 -15 1
-25 -9 -10 -7 -13 9 -13 11 0 23 -6 25 -12 4 -8 6 -7 6 3 1 9 9 20 18 23 11 5
14 9 6 14 -6 4 -12 16 -15 27 -2 14 -6 16 -11 8z"/>
<path d="M4007 3477 c-3 -9 -14 -17 -24 -17 -17 -1 -17 -1 0 -11 9 -5 17 -17
17 -26 0 -13 3 -14 12 -5 8 8 17 8 30 1 17 -9 18 -8 9 9 -7 13 -7 22 1 30 9 9
7 12 -9 12 -12 0 -23 5 -25 12 -3 7 -7 6 -11 -5z"/>
<path d="M987 3456 c-4 -11 -13 -16 -22 -12 -17 6 -21 -9 -5 -19 8 -5 7 -12
-2 -23 -11 -14 -10 -15 6 -9 10 4 25 2 32 -4 11 -9 14 -8 14 4 0 9 8 21 18 26
15 9 15 10 -5 11 -15 0 -23 7 -25 23 -3 20 -4 20 -11 3z"/>
<path d="M4107 3265 c-10 -14 -13 -26 -7 -30 5 -3 6 -13 3 -23 -6 -14 -4 -15
9 -4 8 7 23 10 32 6 12 -5 15 -2 10 11 -4 10 -1 21 7 26 11 7 11 9 -3 9 -9 0
-21 6 -25 14 -6 11 -12 9 -26 -9z"/>
<path d="M877 3246 c-4 -11 -13 -16 -22 -12 -13 4 -14 2 -5 -14 6 -11 9 -24 6
-29 -3 -4 7 -8 22 -8 20 0 31 8 39 24 10 20 8 23 -7 23 -10 0 -20 8 -22 18 -3
16 -4 16 -11 -2z"/>
<path d="M4200 3058 c0 -12 -8 -18 -21 -18 -18 0 -19 -3 -9 -15 7 -8 9 -22 6
-31 -5 -14 -4 -15 9 -4 8 7 21 10 28 7 7 -2 18 6 24 19 9 19 8 24 -2 24 -8 0
-19 8 -24 18 -10 16 -10 16 -11 0z"/>
<path d="M797 3026 c-4 -9 -13 -16 -21 -16 -11 0 -12 -5 -3 -22 12 -28 57 -32
57 -6 0 9 6 19 13 21 7 3 5 6 -5 6 -9 1 -21 8 -26 17 -8 15 -10 15 -15 0z"/>
<path d="M1263 2970 c0 -25 2 -35 4 -22 2 12 2 32 0 45 -2 12 -4 2 -4 -23z"/>
<path d="M3742 2950 c0 -14 2 -19 5 -12 2 6 2 18 0 25 -3 6 -5 1 -5 -13z"/>
<path d="M1187 2825 c10 -13 22 -25 27 -25 5 0 -1 11 -14 25 -30 32 -36 32
-13 0z"/>
<path d="M3799 2813 l-24 -28 28 24 c25 23 32 31 24 31 -2 0 -14 -12 -28 -27z"/>
<path d="M4247 2826 c-4 -10 -13 -13 -24 -9 -15 6 -16 4 -5 -9 7 -8 10 -23 6
-32 -5 -12 -2 -15 10 -10 9 3 24 0 33 -7 13 -11 15 -11 9 -1 -4 7 -2 19 4 27
9 11 7 19 -8 35 -16 18 -20 19 -25 6z"/>
<path d="M750 2794 c0 -8 -10 -14 -22 -14 -21 -1 -22 -2 -5 -14 9 -7 17 -22
17 -32 0 -15 2 -16 9 -5 5 8 17 12 27 9 29 -8 26 46 -3 60 -18 8 -23 7 -23 -4z"/>
<path d="M4277 2603 c-5 -7 -18 -13 -30 -13 -16 0 -18 -3 -9 -12 8 -8 9 -15 1
-25 -9 -10 -7 -13 8 -13 10 0 24 -5 31 -12 9 -9 12 -8 12 5 0 9 8 21 18 26 15
9 16 10 0 11 -9 0 -18 10 -20 23 -2 15 -5 18 -11 10z"/>
<path d="M730 2567 c0 -9 -8 -21 -17 -26 -17 -10 -17 -10 0 -11 10 0 17 -8 17
-19 0 -17 3 -18 24 -8 13 7 22 15 19 20 -2 4 1 14 7 22 10 12 9 15 -7 15 -10
0 -24 5 -31 12 -9 9 -12 8 -12 -5z"/>
<path d="M4225 2341 c0 -19 7 -31 23 -38 17 -9 22 -8 22 3 0 8 10 14 23 14 20
1 20 2 5 11 -10 5 -18 17 -18 26 0 13 -3 13 -15 3 -10 -9 -19 -9 -27 -2 -10 8
-13 4 -13 -17z"/>
<path d="M743 2338 c4 -11 0 -21 -11 -27 -16 -9 -16 -10 1 -16 9 -4 17 -14 17
-23 0 -12 3 -13 12 -4 7 7 21 12 31 12 16 0 17 3 7 15 -7 8 -10 21 -7 29 4 10
1 13 -9 9 -8 -3 -22 1 -31 8 -15 12 -16 12 -10 -3z"/>
<path d="M4187 2123 c3 -7 0 -20 -7 -28 -10 -12 -9 -15 9 -15 11 0 21 -4 21
-10 0 -5 8 -2 18 8 13 11 16 21 10 29 -6 7 -8 16 -5 20 3 4 -8 8 -23 9 -20 1
-27 -3 -23 -13z"/>
<path d="M786 2105 c4 -9 -1 -22 -12 -30 -18 -14 -18 -14 3 -15 12 0 24 -6 27
-12 5 -10 7 -10 12 0 3 6 13 12 21 12 12 0 13 3 4 14 -6 7 -8 22 -5 32 6 15 4
17 -6 7 -9 -8 -19 -9 -31 -2 -15 8 -17 6 -13 -6z"/>
<path d="M4117 1907 c3 -6 -2 -16 -12 -24 -18 -12 -18 -13 3 -13 14 0 22 -6
22 -17 0 -15 1 -15 13 2 9 12 19 15 28 10 12 -7 12 -6 1 7 -7 8 -10 22 -7 30
4 11 -2 15 -24 15 -17 0 -28 -5 -24 -10z"/>
<path d="M860 1885 c10 -12 10 -18 0 -30 -10 -12 -10 -15 3 -15 9 0 21 -8 26
-17 10 -17 10 -17 11 -1 0 9 8 22 18 27 9 6 11 11 5 11 -7 0 -13 10 -13 21 0
17 -3 19 -14 10 -10 -8 -16 -9 -21 -1 -3 5 -11 10 -17 10 -7 0 -6 -6 2 -15z"/>
<path d="M2030 887 c0 -9 -8 -21 -17 -26 -17 -10 -17 -10 -1 -11 9 0 22 -8 27
-17 7 -11 11 -13 11 -5 0 9 7 11 22 6 20 -6 21 -5 10 8 -7 9 -9 24 -5 33 4 13
3 16 -6 11 -6 -4 -18 -2 -26 4 -12 10 -15 9 -15 -3z"/>
<path d="M2966 891 c-4 -7 -13 -10 -20 -8 -6 3 -11 -7 -12 -24 -1 -16 3 -26 8
-23 5 3 15 0 23 -6 12 -10 15 -9 15 4 0 9 8 16 18 16 15 1 15 2 1 13 -9 7 -18
19 -21 27 -3 11 -6 11 -12 1z"/>
<path d="M2495 848 c-6 -23 -13 -28 -38 -28 l-31 0 23 -16 c18 -13 22 -23 17
-45 -5 -28 -5 -29 17 -14 21 13 25 13 46 -2 24 -16 24 -16 17 11 -5 21 -2 31
16 46 l23 19 -27 1 c-19 0 -32 8 -42 28 l-14 27 -7 -27z"/>
<path d="M2250 837 c0 -9 -8 -21 -17 -26 -16 -9 -16 -10 5 -11 16 0 22 -6 23
-22 1 -17 2 -19 6 -5 2 9 14 17 25 17 17 0 18 2 8 15 -10 12 -10 18 1 32 13
15 12 15 -7 5 -16 -8 -24 -8 -32 0 -9 9 -12 8 -12 -5z"/>
<path d="M2750 839 c0 -6 -8 -8 -17 -5 -14 4 -18 0 -18 -19 0 -14 6 -25 13
-25 6 0 12 -4 12 -10 0 -5 5 -10 10 -10 6 0 10 7 10 15 0 8 8 15 17 15 15 0
15 1 -2 13 -10 8 -15 19 -11 25 4 7 2 12 -3 12 -6 0 -11 -5 -11 -11z"/>
</g>
</svg>
